<?xml version="1.0" encoding="UTF-8"?>
<svg id="_图层_1" data-name="图层 1" xmlns="http://www.w3.org/2000/svg" xmlns:xlink="http://www.w3.org/1999/xlink" viewBox="0 0 1024 1024">
  <defs>
    <style>
      .cls-1 {
        fill: #f1f1f1;
      }

      .cls-2 {
        filter: url(#drop-shadow-1);
      }

      .cls-3 {
        filter: url(#drop-shadow-2);
      }

      .cls-4 {
        fill: #212121;
      }

      .cls-5 {
        fill: #a91e1f;
      }
    </style>
    <filter id="drop-shadow-1" x="365" y="844" width="317" height="153" filterUnits="userSpaceOnUse">
      <feOffset dx="12" dy="12"/>
      <feGaussianBlur result="blur" stdDeviation="10"/>
      <feFlood flood-color="#000" flood-opacity=".5"/>
      <feComposite in2="blur" operator="in"/>
      <feComposite in="SourceGraphic"/>
    </filter>
    <filter id="drop-shadow-2" x="329" y="346" width="392" height="192" filterUnits="userSpaceOnUse">
      <feOffset dx="12" dy="12"/>
      <feGaussianBlur result="blur-2" stdDeviation="10"/>
      <feFlood flood-color="#000" flood-opacity=".5"/>
      <feComposite in2="blur-2" operator="in"/>
      <feComposite in="SourceGraphic"/>
    </filter>
  </defs>
  <g id="_圆角" data-name="圆角">
    <path class="cls-1" d="M824,0H200C89.54,0,0,89.54,0,200v624c0,103.68,78.89,188.93,179.92,199h664.16c101.03-10.07,179.92-95.32,179.92-199V200c0-110.46-89.54-200-200-200Z"/>
    <path class="cls-5" d="M0,824c0,103.68,78.89,188.93,179.92,199h664.16c101.03-10.07,179.92-95.32,179.92-199v-13H0v13Z"/>
  </g>
  <g class="cls-2">
    <path class="cls-1" d="M407.09,946.3c-.3,2.21-1.35,4.02-3.15,5.44-1.8,1.41-3.75,2.32-5.85,2.72-2.1.4-4.03.2-5.78-.6-1.75-.8-2.68-2.39-2.78-4.77-.5-10.16-.75-20.71-.75-31.62v-32.55c-1.6-.53-2.8-1.33-3.6-2.39-.8-1.06-1.28-2.23-1.43-3.51-.15-1.28.02-2.59.53-3.91.5-1.33,1.25-2.47,2.25-3.45,1.1-1.06,2.6-2.03,4.5-2.92,1.9-.88,3.98-1.7,6.23-2.45,2.25-.75,4.48-1.39,6.68-1.92,2.2-.53,4.05-.93,5.55-1.19,6.3-1.15,12.66-1.13,19.06.07,6.4,1.19,12.03,3.34,16.89,6.43,4.85,3.1,8.48,7.12,10.88,12.07,2.4,4.95,2.65,10.61.75,16.97-.6,1.77-1.35,3.54-2.25,5.3-.9,1.77-1.95,3.4-3.15,4.91-1.7,2.3-3.7,4.33-6,6.1-2.3,1.77-4.8,3.4-7.51,4.91,1.9,1.77,3.7,3.62,5.4,5.57,1.7,1.95,3.6,3.71,5.7,5.3.8.62,1.98,1.59,3.53,2.92,1.55,1.33,3.05,2.74,4.5,4.24,1.45,1.5,2.73,2.98,3.83,4.44,1.1,1.46,1.6,2.67,1.5,3.65-.1,1.68-.63,3.21-1.58,4.57-.95,1.37-2.1,2.43-3.45,3.18-1.35.75-2.83,1.13-4.43,1.13s-3.2-.49-4.8-1.46c-1.8-1.24-3.5-2.7-5.1-4.38-1.6-1.68-3.15-3.23-4.65-4.64-3.3-3.18-6.53-6.39-9.68-9.61-3.15-3.23-6.38-6.39-9.68-9.48-2,.35-4.03.6-6.08.73-2.05.13-4.08.29-6.08.46v19.76ZM433.96,882.12c-4-2.12-8.38-3.31-13.14-3.58-4.75-.26-9.33.31-13.74,1.72v29.97c4.5-.27,8.93-.77,13.29-1.53,4.35-.75,8.38-2.41,12.08-4.97,2-1.41,3.63-3.07,4.88-4.97,1.25-1.9,2-3.85,2.25-5.83.25-1.99-.05-3.93-.9-5.83-.85-1.9-2.43-3.56-4.73-4.97Z"/>
    <path class="cls-1" d="M553.53,939.27c.9,1.15,1.43,2.5,1.58,4.04.15,1.55-.05,3.01-.6,4.38-.55,1.37-1.45,2.5-2.7,3.38-1.25.88-2.88,1.28-4.88,1.19-2.6-.18-4.71-.97-6.3-2.39-1.6-1.41-3.1-3-4.5-4.77-3.9,2.83-7.93,4.79-12.08,5.9-4.15,1.1-8.23,1.35-12.23.73-4-.62-7.76-2.1-11.26-4.44-3.5-2.34-6.46-5.5-8.86-9.48-2.2-3.71-3.43-7.82-3.68-12.33-.25-4.51-.33-8.79-.23-12.86,0-1.41.05-2.81.15-4.18.1-1.37.2-2.81.3-4.31.1-1.15.15-2.28.15-3.38s.08-2.14.23-3.12c.15-.97.45-1.94.9-2.92.45-.97,1.13-1.9,2.03-2.79,1.2-1.15,2.65-1.83,4.35-2.05,1.7-.22,3.33-.07,4.88.46,1.55.53,2.9,1.35,4.05,2.45,1.15,1.11,1.78,2.45,1.88,4.04.2,4.51.07,9.06-.38,13.66-.45,4.6-.43,9.11.08,13.53.2,2.12.83,4.29,1.88,6.5,1.05,2.21,2.73,3.8,5.03,4.77,2.3.88,4.63.82,6.98-.2,2.35-1.01,4.28-2.23,5.78-3.65.7-.71,1.38-1.48,2.03-2.32.65-.84,1.37-1.57,2.18-2.19-.4-3.09-.65-6.19-.75-9.28-.1-3.09-.1-6.19,0-9.28,0-1.68.08-3.51.22-5.5.15-1.99.55-3.89,1.2-5.7.65-1.81,1.63-3.4,2.93-4.77,1.3-1.37,3.15-2.23,5.55-2.58,1.1-.18,2.18-.09,3.23.26,1.05.35,1.98.84,2.78,1.46,1.4,1.06,2.35,2.25,2.85,3.58.5,1.33.75,2.74.75,4.24s-.13,3.03-.38,4.57c-.25,1.55-.43,2.98-.53,4.31-.2,2.48-.35,5.08-.45,7.82-.1,2.74,0,5.48.3,8.22.3,2.74.88,5.39,1.73,7.96.85,2.56,2.12,4.91,3.83,7.03Z"/>
    <path class="cls-1" d="M639.02,946.16c-.3,2.21-1.23,4.02-2.78,5.44-1.55,1.41-3.3,2.3-5.25,2.65-1.95.35-3.83.13-5.63-.66-1.8-.79-3.1-2.34-3.9-4.64-.9-2.47-1.25-5.06-1.05-7.76.2-2.7.3-5.19.3-7.49,0-4.77.02-9.52.08-14.25.05-4.73-.18-9.48-.68-14.25-.1-.18-.2-.33-.3-.46-.1-.13-.3-.33-.6-.6-2.3-.53-4.75-.4-7.36.4-2.6.8-4.8,1.81-6.61,3.05-1.6,1.15-3.18,2.72-4.73,4.71-1.55,1.99-2.33,3.91-2.33,5.77v18.3c0,1.42.05,2.96.15,4.64.1,1.68.02,3.32-.22,4.91-.25,1.59-.83,3.05-1.73,4.38s-2.35,2.3-4.35,2.92c-1.1.35-2.13.48-3.08.4-.95-.09-1.98-.31-3.08-.66-1.8-.53-3.1-1.44-3.9-2.72-.8-1.28-1.35-2.65-1.65-4.11-.3-1.46-.43-2.87-.38-4.24.05-1.37.08-2.45.08-3.25,0-2.03-.03-4.97-.08-8.82-.05-3.85-.08-7.89-.08-12.13v-20.95c0-1.94.65-3.56,1.95-4.84,1.3-1.28,2.83-2.12,4.58-2.52,1.75-.4,3.6-.31,5.55.27,1.95.58,3.58,1.75,4.88,3.51,4-2.3,8.41-3.84,13.21-4.64s9.33-.66,13.59.4c4.25,1.06,7.81,3.05,10.66,5.97,2.85,2.92,4.33,6.94,4.43,12.07,0,.18.05.71.15,1.59.1.88.15,2.12.15,3.71v33.95Z"/>
  </g>
  <g class="cls-3">
    <path class="cls-4" d="M347.54,364.36h54.04c12.19,0,21.48.82,27.87,2.47,8.59,2.24,15.95,6.21,22.08,11.91,6.13,5.71,10.79,12.69,13.99,20.96,3.2,8.27,4.79,18.46,4.79,30.57,0,10.65-1.5,19.82-4.5,27.53-3.66,9.41-8.89,17.03-15.68,22.85-5.13,4.41-12.05,7.85-20.78,10.32-6.53,1.82-15.25,2.74-26.17,2.74h-55.64v-129.35ZM377.11,386.25v85.68h22.08c8.26,0,14.22-.41,17.88-1.24,4.79-1.06,8.77-2.85,11.94-5.38,3.16-2.53,5.74-6.69,7.74-12.49,2-5.79,3-13.69,3-23.69s-1-17.68-3-23.03c-2-5.35-4.79-9.53-8.39-12.53s-8.16-5.03-13.69-6.09c-4.13-.82-12.22-1.24-24.27-1.24h-13.29Z"/>
    <path class="cls-4" d="M568.68,364.36h29.47v81.88c0,10.71-1.07,18.94-3.2,24.71-2.87,7.53-8.06,13.57-15.58,18.13-7.53,4.56-17.45,6.84-29.77,6.84-14.45,0-25.57-3.57-33.37-10.72-7.79-7.15-11.72-17.63-11.79-31.46l27.87-2.82c.33,7.41,1.56,12.65,3.7,15.71,3.2,4.65,8.06,6.97,14.58,6.97s11.25-1.66,13.99-4.99c2.73-3.32,4.1-10.22,4.1-20.69v-83.56Z"/>
    <path class="cls-4" d="M649.17,493.72v-129.35h29.57v129.35h-29.57Z"/>
  </g>
</svg>